<svg xmlns="http://www.w3.org/2000/svg" xmlns:xlink="http://www.w3.org/1999/xlink" aria-hidden="true" style="position: absolute; width: 0; height: 0; overflow: hidden;" version="1.1">
    <defs>
        <symbol id="title-sprite" viewBox="0 0 218 32">
            <path d="M7.514 6.992c-3.859 0-6.66 1.639-6.66 4.508 0 7.002 15.403 5.26 15.403 10.212 0 1.674-2.698 3.040-5.567 3.040-4.884 0-8.197-3.21-10.28-6.899h-0.41c0.82 1.708 2.425 5.055 2.425 7.582h0.41c0-0.99 0.068-1.503 0.615-1.503 0.786 0 3.689 1.23 6.762 1.23 4.235 0 7.343-1.571 7.343-4.201 0-7.036-15.267-5.157-15.267-10.212 0-1.981 1.947-3.347 5.226-3.347 4.44 0 7.309 2.835 9.392 6.523h0.41c-0.82-1.708-2.425-5.055-2.425-7.582h-0.41c0 0.99-0.068 1.503-0.615 1.503-0.786 0-3.654-0.854-6.353-0.854z"/>
            <path d="M29.217 25.162c4.986 0 9.597-4.064 9.597-9.085s-4.611-9.085-9.597-9.085c-5.021 0-9.597 4.064-9.597 9.085s4.577 9.085 9.597 9.085zM22.181 16.077c0-5.396 2.801-8.675 7.036-8.675s7.036 3.279 7.036 8.675c0 5.362-2.801 8.675-7.036 8.675s-7.036-3.313-7.036-8.675z"/>
            <path d="M44.127 15.394v4.44c0 2.527 0 4.372-3.62 4.372v0.41h9.631v-0.41c-3.62 0-3.62-1.844-3.62-4.372v-7.343c0-1.844 2.288-4.952 6.216-4.952 3.415 0 6.079 2.015 6.079 5.704v8.129c0 8.197 6.899 10.622 14.584 10.622 4.406 0 10.554-1.878 10.554-5.499 0-6.831-15.745 1.639-15.745-4.201 0-0.922 0.649-1.708 1.332-2.357 1.434 1.025 3.21 1.639 5.157 1.639 4.474 0 8.231-3.279 8.231-7.275 0-1.913-0.854-3.689-2.254-4.986 0.99-0.854 2.083-0.82 3.45-0.273l-0.683-1.947c-1.298 0-2.288 0.956-3.074 1.947-1.503-1.264-3.484-2.049-5.67-2.049-4.474 0-8.197 3.279-8.197 7.309 0 2.117 1.059 4.030 2.698 5.362l-3.108 2.63c0 6.318 15.301-1.127 15.301 4.85 0 2.766-3.586 4.44-7.992 4.44-7.548 0-12.193-2.835-12.193-10.212v-7.411c0-4.338-3.21-6.967-7.753-6.967-3.552 0-5.84 1.742-6.933 3.586v-3.586h-0.41c0 3.62-1.981 3.62-5.601 3.62v0.41c3.62 0 3.62 1.844 3.62 4.372zM69.060 14.301c0-4.338 2.254-6.899 5.635-6.899 3.415 0 5.67 2.562 5.67 6.899 0 4.269-2.254 6.865-5.67 6.865-3.381 0-5.635-2.596-5.635-6.865z"/>
            <path d="M93.165 6.992c-3.859 0-6.66 1.639-6.66 4.508 0 7.002 15.403 5.26 15.403 10.212 0 1.674-2.698 3.040-5.567 3.040-4.884 0-8.197-3.21-10.28-6.899h-0.41c0.82 1.708 2.425 5.055 2.425 7.582h0.41c0-0.99 0.068-1.503 0.615-1.503 0.786 0 3.689 1.23 6.762 1.23 4.235 0 7.343-1.571 7.343-4.201 0-7.036-15.267-5.157-15.267-10.212 0-1.981 1.947-3.347 5.226-3.347 4.44 0 7.309 2.835 9.392 6.523h0.41c-0.82-1.708-2.425-5.055-2.425-7.582h-0.41c0 0.99-0.068 1.503-0.615 1.503-0.786 0-3.654-0.854-6.353-0.854z"/>
            <path d="M114.868 25.162c4.986 0 9.597-4.064 9.597-9.085s-4.611-9.085-9.597-9.085c-5.021 0-9.597 4.064-9.597 9.085s4.577 9.085 9.597 9.085zM107.833 16.077c0-5.396 2.801-8.675 7.036-8.675s7.036 3.279 7.036 8.675c0 5.362-2.801 8.675-7.036 8.675s-7.036-3.313-7.036-8.675z"/>
            <path d="M132.17 19.834v-11.886h8.334v-0.41h-8.334v-0.41c0-3.962 1.981-5.84 4.85-5.84 3.757 0 5.499 2.732 7.582 6.421h0.41c-0.82-1.708-2.425-5.055-2.425-7.582h-0.41c0 0.99-0.068 1.503-0.615 1.503-0.786 0-2.254-0.751-4.542-0.751-3.689 0-7.070 2.152-7.241 6.66h-2.766v0.41h2.766v11.886c0 2.527 0 4.372-3.62 4.372v0.41h9.631v-0.41c-3.62 0-3.62-1.844-3.62-4.372z"/>
            <path d="M161.172 19.253l-0.342-0.239c-1.366 2.971-3.825 5.499-7.719 5.499-4.235 0-7.924-3.313-7.924-8.675 0-5.021 2.801-8.436 7.036-8.436 3.757 0 5.499 2.732 7.582 6.421h0.411c-0.82-1.708-2.426-5.055-2.426-7.582h-0.409c0 0.99-0.068 1.503-0.615 1.503-0.785 0-2.254-0.751-4.542-0.751-5.021 0-9.597 4.064-9.597 9.085s4.577 9.085 9.597 9.085c4.337 0 7.514-2.459 8.948-5.909z"/>
            <path d="M166.334 9.246v10.588c0 2.527 0 4.372-3.62 4.372v0.41h9.631v-0.41c-3.62 0-3.62-1.844-3.62-4.372v-18.989h-0.409c0 3.62-1.982 3.62-5.602 3.62v0.41c3.62 0 3.62 1.844 3.62 4.372z"/>
            <path d="M189.62 13.789c-3.928 0-15.574 0.717-15.574 6.626 0 3.074 3.074 4.747 6.591 4.747 6.558 0 8.538-5.874 8.983-7.172v6.626h6.011v-0.41c-3.62 0-3.62-1.844-3.62-4.372v-5.704c0-5.635-4.132-7.138-7.822-7.138-1.638 0-4.065 0.751-4.849 0.751-0.546 0-0.615-0.512-0.615-1.503h-0.409c0 2.527-1.606 5.874-2.425 7.582h0.409c2.323-4.133 4.611-6.421 8.129-6.421 3.483 0 5.123 2.562 5.191 6.387zM176.608 20.414c0-4.064 6.078-6.216 13.012-6.216v1.195c0 3.006-2.595 9.256-8.538 9.256-2.357 0-4.474-1.708-4.474-4.235z"/>
            <path d="M198.1 29.465l-1.195 1.981c5.088 0 8.128-4.85 10.382-9.187l5.192-9.939c1.162-2.22 2.254-4.372 5.874-4.372v-0.41h-7.752v0.41c3.62 0 2.528 2.152 1.366 4.372l-5.226 10.007-5.191-10.007c-1.298-2.493-2.22-4.372 1.4-4.372v-0.41h-9.7v0.41c3.62 0 4.543 1.878 5.84 4.372l6.388 12.193c-1.811 2.835-4.065 4.952-7.377 4.952z"/>
        </symbol>
        <symbol id="about-title-sprite-desk" viewBox="0 0 1288 166">
            <path d="M23.532 128.92V100.06C23.532 83.6315 23.532 71.6435 0 71.6435V68.9795C23.532 68.9795 36.408 68.9795 36.408 45.4475H39.072V128.92C39.072 145.348 39.072 157.336 62.604 157.336V160H0V157.336C23.532 157.336 23.532 145.348 23.532 128.92ZM16.428 25.9115C16.428 32.3495 21.534 37.4555 27.972 37.4555C34.188 37.4555 39.294 32.3495 39.294 25.9115C39.294 19.6955 34.188 14.5895 27.972 14.5895C21.534 14.5895 16.428 19.6955 16.428 25.9115Z" fill="white"/>
            <path d="M177.999 60.0995V66.5375C171.783 56.5475 155.577 45.4475 136.041 45.4475C103.629 45.4475 73.6589 71.8655 73.6589 104.5C73.6589 137.134 103.629 163.552 136.041 163.552C155.577 163.552 171.783 152.452 177.999 142.462V160H217.071V157.336C193.539 157.336 193.539 145.348 193.539 128.92V5.48752H190.875C190.875 29.0195 177.999 29.0195 154.467 29.0195V31.6835C177.999 31.6835 177.999 43.6715 177.999 60.0995ZM90.3089 104.5C90.3089 69.4235 108.513 48.1115 136.041 48.1115C155.577 48.1115 173.781 60.7655 177.999 73.1975V135.802C173.781 148.234 155.577 160.888 136.041 160.888C108.513 160.888 90.3089 139.576 90.3089 104.5Z" fill="white"/>
            <path d="M426.925 48.1115C449.569 48.1115 461.779 64.7615 462.223 89.6255C436.693 89.6255 360.991 94.2875 360.991 132.694C360.991 152.674 380.971 163.552 403.837 163.552C446.461 163.552 459.337 125.368 462.223 116.932V160H501.295V157.336C477.763 157.336 477.763 145.348 477.763 128.92V91.8455C477.763 55.2155 448.681 45.4475 426.925 45.4475C382.969 45.4475 365.431 74.9735 351.001 103.834C336.571 132.694 322.141 159.334 296.389 159.334C286.843 159.334 277.741 156.67 269.749 151.786L337.681 78.9695C334.351 67.4255 319.255 45.4475 290.617 45.4475C257.983 45.4475 228.235 71.8655 228.235 104.5C228.235 137.134 257.983 163.552 290.617 163.552C326.359 163.552 338.347 133.804 353.665 104.722C368.539 76.0835 384.079 48.1115 426.925 48.1115ZM244.885 102.946C244.885 70.3115 261.091 48.5555 287.065 48.5555C306.157 48.5555 319.477 60.3215 319.477 80.5235C319.477 98.0615 284.845 131.14 267.529 150.454C253.987 140.908 244.885 124.48 244.885 102.946ZM377.641 132.694C377.641 106.276 417.157 92.2895 462.223 92.2895V100.06C462.223 119.596 445.351 160.222 406.723 160.222C391.405 160.222 377.641 149.122 377.641 132.694Z" fill="white"/>
            <path d="M635.723 160V157.336C628.175 157.336 620.849 155.782 613.745 153.118C629.285 142.018 633.059 125.146 633.059 115.378V110.494C633.059 94.0655 633.059 82.0775 656.591 82.0775V79.4135H592.877V82.0775C616.409 82.0775 616.409 94.0655 616.409 110.494V115.378C616.409 122.26 618.407 139.132 607.529 150.232C571.787 131.584 548.033 79.8575 548.033 40.1195C548.033 17.2535 558.911 8.15152 575.117 8.15152C595.319 8.15152 611.081 25.9115 624.623 49.8875H627.287C621.959 38.7875 611.525 17.0315 611.525 0.603516H608.861C608.861 7.04153 608.417 10.3715 604.865 10.3715C599.759 10.3715 588.881 5.48752 575.117 5.48752C551.585 5.48752 530.717 19.9175 530.717 47.0015C530.717 57.4355 534.269 70.7555 540.485 84.5195C525.833 89.1815 510.071 101.392 510.071 120.706C510.071 146.902 537.155 163.552 575.117 163.552C590.435 163.552 601.757 160.222 610.193 155.338C618.407 158.446 626.843 160 635.723 160ZM527.387 118.042C527.387 103.39 533.381 92.5115 541.817 87.4055C554.249 113.38 576.671 140.686 604.421 153.118C598.205 157.78 589.103 160.888 575.117 160.888C541.373 160.888 527.387 139.354 527.387 118.042Z" fill="white"/>
            <path d="M764.578 89.6255C739.048 89.6255 663.346 94.2875 663.346 132.694C663.346 152.674 683.326 163.552 706.192 163.552C748.816 163.552 761.692 125.368 764.578 116.932V160H803.65V157.336C780.118 157.336 780.118 145.348 780.118 128.92V91.8455C780.118 55.2155 753.256 45.4475 729.28 45.4475C718.624 45.4475 702.862 50.3315 697.756 50.3315C694.204 50.3315 693.76 47.0015 693.76 40.5635H691.096C691.096 56.9915 680.662 78.7475 675.334 89.8475H677.998C693.094 62.9855 707.968 48.1115 730.834 48.1115C753.478 48.1115 764.134 64.7615 764.578 89.6255ZM679.996 132.694C679.996 106.276 719.512 92.2895 764.578 92.2895V100.06C764.578 119.596 747.706 160.222 709.078 160.222C693.76 160.222 679.996 149.122 679.996 132.694Z" fill="white"/>
            <path d="M838.255 100.06V128.92C838.255 145.348 838.255 157.336 814.723 157.336V160H877.327V157.336C853.795 157.336 853.795 145.348 853.795 128.92V81.1895C853.795 69.2015 868.447 48.9995 888.649 48.9995C913.291 48.9995 920.173 62.9855 935.269 89.8475H937.933C932.605 78.7475 922.171 56.9915 922.171 40.5635H919.507C919.507 47.0015 919.063 50.3315 915.511 50.3315C910.405 50.3315 905.299 45.4475 889.759 45.4475C872.887 45.4475 860.233 56.5475 853.795 68.3135V45.4475H851.131C851.131 68.9795 838.255 68.9795 814.723 68.9795V71.6435C838.255 71.6435 838.255 83.6315 838.255 100.06Z" fill="white"/>
            <path d="M982.52 119.374V51.6635H1013.6V48.9995H982.52V16.1435H979.856C979.856 39.0095 975.194 48.9995 943.448 48.9995V51.6635C966.98 51.6635 966.98 63.6515 966.98 80.0795V110.938C966.98 147.568 992.51 160 1012.27 160V157.336C996.728 157.336 982.52 146.236 982.52 119.374Z" fill="white"/>
            <path d="M1048.33 128.92V100.06C1048.33 83.6315 1048.33 71.6435 1024.8 71.6435V68.9795C1048.33 68.9795 1061.21 68.9795 1061.21 45.4475H1063.87V128.92C1063.87 145.348 1063.87 157.336 1087.4 157.336V160H1024.8V157.336C1048.33 157.336 1048.33 145.348 1048.33 128.92ZM1041.23 25.9115C1041.23 32.3495 1046.33 37.4555 1052.77 37.4555C1058.99 37.4555 1064.09 32.3495 1064.09 25.9115C1064.09 19.6955 1058.99 14.5895 1052.77 14.5895C1046.33 14.5895 1041.23 19.6955 1041.23 25.9115Z" fill="white"/>
            <path d="M1145.08 45.4475C1119.99 45.4475 1101.79 56.1035 1101.79 74.7515C1101.79 120.262 1201.91 108.94 1201.91 141.13C1201.91 152.008 1184.37 160.888 1165.72 160.888C1133.98 160.888 1112.44 140.02 1098.9 116.044H1096.24C1101.57 127.144 1112 148.9 1112 165.328H1114.66C1114.66 158.89 1115.11 155.56 1118.66 155.56C1123.77 155.56 1142.64 163.552 1162.62 163.552C1190.14 163.552 1210.35 153.34 1210.35 136.246C1210.35 90.7355 1111.11 102.724 1111.11 69.8675C1111.11 56.9915 1123.77 48.1115 1145.08 48.1115C1173.94 48.1115 1192.59 66.5375 1206.13 90.5135H1208.79C1203.46 79.4135 1193.03 57.6575 1193.03 41.2295C1193.03 18.3635 1205.24 7.92951 1224.78 7.92951C1232.1 7.92951 1253.41 11.0375 1253.41 29.4635C1253.41 36.5675 1248.75 48.9995 1217.01 48.9995V51.6635C1240.54 51.6635 1240.54 63.6515 1240.54 80.0795V110.938C1240.54 147.568 1266.07 160 1285.83 160V157.336C1270.29 157.336 1256.08 146.236 1256.08 119.374V51.6635H1287.16V48.9995H1256.08V29.4635C1256.08 9.48352 1234.99 5.48752 1224.78 5.48752C1203.69 5.48752 1189.48 17.4755 1190.37 41.2295C1190.59 47.6675 1189.92 50.9975 1186.37 50.9975C1181.26 50.9975 1162.62 45.4475 1145.08 45.4475Z" fill="white"/>
        </symbol>
        <svg id="about-title-sprite-mob" viewBox="0 0 355 160">
            <path d="M10.7502 56.6651V43.4161C10.7502 35.8743 10.7502 30.3709 0 30.3709V29.1479C10.7502 29.1479 16.6324 29.1479 16.6324 18.3448H17.8494V56.6651C17.8494 64.2069 17.8494 69.7103 28.5996 69.7103V70.9333H0V69.7103C10.7502 69.7103 10.7502 64.2069 10.7502 56.6651ZM7.50486 9.37624C7.50486 12.3318 9.83746 14.6759 12.7786 14.6759C15.6182 14.6759 17.9508 12.3318 17.9508 9.37624C17.9508 6.5226 15.6182 4.17854 12.7786 4.17854C9.83746 4.17854 7.50486 6.5226 7.50486 9.37624Z" fill="white"/>
            <path d="M81.3159 25.0713V28.0268C78.4762 23.4406 71.0728 18.3448 62.1481 18.3448C47.3412 18.3448 33.6499 30.4728 33.6499 45.4544C33.6499 60.436 47.3412 72.5639 62.1481 72.5639C71.0728 72.5639 78.4762 67.4682 81.3159 62.882V70.9333H99.1653V69.7103C88.4151 69.7103 88.4151 64.2069 88.4151 56.6651V0H87.1981C87.1981 10.8031 81.3159 10.8031 70.5657 10.8031V12.026C81.3159 12.026 81.3159 17.5295 81.3159 25.0713ZM41.2562 45.4544C41.2562 29.3517 49.5724 19.5678 62.1481 19.5678C71.0728 19.5678 79.389 25.377 81.3159 31.0843V59.8245C79.389 65.5318 71.0728 71.341 62.1481 71.341C49.5724 71.341 41.2562 61.5571 41.2562 45.4544Z" fill="white"/>
            <path d="M195.034 19.5678C205.378 19.5678 210.956 27.2115 211.159 38.626C199.496 38.626 164.913 40.7663 164.913 58.3977C164.913 67.5701 174.04 72.5639 184.486 72.5639C203.958 72.5639 209.841 55.0345 211.159 51.1617V70.9333H229.008V69.7103C218.258 69.7103 218.258 64.2069 218.258 56.6651V39.6452C218.258 22.8291 204.973 18.3448 195.034 18.3448C174.953 18.3448 166.941 31.8996 160.349 45.1486C153.757 58.3977 147.165 70.6275 135.401 70.6275C131.04 70.6275 126.881 69.4046 123.23 67.1624L154.264 33.7341C152.743 28.4345 145.846 18.3448 132.764 18.3448C117.855 18.3448 104.265 30.4728 104.265 45.4544C104.265 60.436 117.855 72.5639 132.764 72.5639C149.092 72.5639 154.568 58.9072 161.566 45.5563C168.361 32.4092 175.46 19.5678 195.034 19.5678ZM111.872 44.741C111.872 29.7594 119.275 19.7716 131.141 19.7716C139.863 19.7716 145.948 25.1732 145.948 34.4475C145.948 42.4988 130.127 57.6843 122.216 66.5509C116.03 62.1685 111.872 54.6268 111.872 44.741ZM172.519 58.3977C172.519 46.2697 190.571 39.849 211.159 39.849V43.4161C211.159 52.3846 203.451 71.0352 185.805 71.0352C178.807 71.0352 172.519 65.9394 172.519 58.3977Z" fill="white"/>
            <path d="M57.4027 157.554V156.331C53.9545 156.331 50.6077 155.618 47.3624 154.395C54.4616 149.299 56.1857 141.553 56.1857 137.069V134.827C56.1857 127.285 56.1857 121.782 66.9359 121.782V120.559H37.8292V121.782C48.5794 121.782 48.5794 127.285 48.5794 134.827V137.069C48.5794 140.228 49.4921 147.974 44.5227 153.07C28.1945 144.509 17.3429 120.762 17.3429 102.52C17.3429 92.0222 22.3124 87.8437 29.7158 87.8437C38.9448 87.8437 46.1454 95.997 52.3318 107.004H53.5488C51.1148 101.908 46.3482 91.9203 46.3482 84.3786H45.1312C45.1312 87.3341 44.9284 88.8629 43.3057 88.8629C40.9731 88.8629 36.0037 86.6207 29.7158 86.6207C18.9656 86.6207 9.43239 93.2452 9.43239 105.679C9.43239 110.469 11.0551 116.584 13.8948 122.903C7.20123 125.043 0.000587811 130.648 0.000587811 139.515C0.000587811 151.541 12.3735 159.185 29.7158 159.185C36.7136 159.185 41.8858 157.656 45.7397 155.414C49.4921 156.841 53.346 157.554 57.4027 157.554ZM7.91114 138.292C7.91114 131.566 10.6494 126.572 14.5033 124.228C20.1826 136.152 30.4257 148.687 43.1029 154.395C40.2632 156.535 36.1051 157.962 29.7158 157.962C14.3004 157.962 7.91114 148.076 7.91114 138.292Z" fill="white"/>
            <path d="M116.268 125.247C104.605 125.247 70.022 127.387 70.022 145.018C70.022 154.191 79.1495 159.185 89.5955 159.185C109.068 159.185 114.95 141.655 116.268 137.782V157.554H134.118V156.331C123.367 156.331 123.367 150.828 123.367 143.286V126.266C123.367 109.45 111.096 104.966 100.143 104.966C95.2748 104.966 88.0742 107.208 85.7416 107.208C84.1189 107.208 83.9161 105.679 83.9161 102.723H82.6991C82.6991 110.265 77.9325 120.253 75.4985 125.349H76.7155C83.6119 113.017 90.4068 106.189 100.853 106.189C111.197 106.189 116.065 113.832 116.268 125.247ZM77.6282 145.018C77.6282 132.89 95.6805 126.47 116.268 126.47V130.037C116.268 139.005 108.56 157.656 90.9139 157.656C83.9161 157.656 77.6282 152.56 77.6282 145.018Z" fill="white"/>
            <path d="M149.926 130.037V143.286C149.926 150.828 149.926 156.331 139.176 156.331V157.554H167.775V156.331C157.025 156.331 157.025 150.828 157.025 143.286V121.374C157.025 115.871 163.719 106.596 172.948 106.596C184.205 106.596 187.349 113.017 194.245 125.349H195.462C193.028 120.253 188.262 110.265 188.262 102.723H187.045C187.045 105.679 186.842 107.208 185.219 107.208C182.887 107.208 180.554 104.966 173.455 104.966C165.747 104.966 159.966 110.061 157.025 115.463V104.966H155.808C155.808 115.769 149.926 115.769 139.176 115.769V116.992C149.926 116.992 149.926 122.495 149.926 130.037Z" fill="white"/>
            <path d="M215.831 138.903V107.819H230.03V106.596H215.831V91.5127H214.614C214.614 102.01 212.484 106.596 197.982 106.596V107.819C208.732 107.819 208.732 113.323 208.732 120.864V135.031C208.732 151.847 220.395 157.554 229.421 157.554V156.331C222.322 156.331 215.831 151.235 215.831 138.903Z" fill="white"/>
            <path d="M245.896 143.286V130.037C245.896 122.495 245.896 116.992 235.146 116.992V115.769C245.896 115.769 251.778 115.769 251.778 104.966H252.995V143.286C252.995 150.828 252.995 156.331 263.745 156.331V157.554H235.146V156.331C245.896 156.331 245.896 150.828 245.896 143.286ZM242.65 95.997C242.65 98.9525 244.983 101.297 247.924 101.297C250.764 101.297 253.096 98.9525 253.096 95.997C253.096 93.1433 250.764 90.7993 247.924 90.7993C244.983 90.7993 242.65 93.1433 242.65 95.997Z" fill="white"/>
            <path d="M290.093 104.966C278.633 104.966 270.317 109.857 270.317 118.418C270.317 139.311 316.056 134.113 316.056 148.891C316.056 153.885 308.044 157.962 299.525 157.962C285.022 157.962 275.185 148.382 268.998 137.375H267.781C270.215 142.471 274.982 152.458 274.982 160H276.199C276.199 157.044 276.402 155.516 278.024 155.516C280.357 155.516 288.977 159.185 298.105 159.185C310.681 159.185 319.91 154.497 319.91 146.649C319.91 125.756 274.576 131.26 274.576 116.176C274.576 110.265 280.357 106.189 290.093 106.189C303.277 106.189 311.796 114.648 317.983 125.654H319.2C316.766 120.559 311.999 110.571 311.999 103.029C311.999 92.5318 317.577 87.7418 326.502 87.7418C329.849 87.7418 339.585 89.1686 339.585 97.6276C339.585 100.889 337.455 106.596 322.952 106.596V107.819C333.702 107.819 333.702 113.323 333.702 120.864V135.031C333.702 151.847 345.365 157.554 354.392 157.554V156.331C347.292 156.331 340.802 151.235 340.802 138.903V107.819H355V106.596H340.802V97.6276C340.802 88.4552 331.167 86.6207 326.502 86.6207C316.867 86.6207 310.377 92.1242 310.782 103.029C310.884 105.985 310.579 107.513 308.957 107.513C306.624 107.513 298.105 104.966 290.093 104.966Z" fill="white"/>
        </svg>
        <symbol id="patreon" viewBox="0 0 15 15">
            <path d="M9.24086 10.5035C11.7311 10.5035 13.7498 8.48474 13.7498 5.99453C13.7498 3.50431 11.7311 1.4856 9.24086 1.4856C6.75065 1.4856 4.73193 3.50431 4.73193 5.99453C4.73193 8.48474 6.75065 10.5035 9.24086 10.5035Z"/>
            <path d="M3.45389 1.4856H1.25V13.5144H3.45389V1.4856Z"/>
        </symbol>
        <symbol id="twitter" viewBox="0 0 15 15">
            <path d="M12.2711 4.95002C12.2782 5.06022 12.2782 5.17041 12.2782 5.28163C12.2782 8.67031 9.87046 12.5785 5.4678 12.5785V12.5765C4.16724 12.5785 2.89369 12.1794 1.79883 11.4268C1.98794 11.4511 2.178 11.4633 2.36853 11.4638C3.44633 11.4648 4.49332 11.0774 5.34125 10.3639C4.31701 10.3431 3.41884 9.62755 3.10508 8.58297C3.46387 8.65711 3.83356 8.64187 4.18572 8.53879C3.06906 8.29706 2.26568 7.24588 2.26568 6.02507C2.26568 6.0139 2.26568 6.00324 2.26568 5.99257C2.59841 6.19113 2.97095 6.30133 3.35201 6.31352C2.30028 5.56042 1.97609 4.06133 2.61121 2.88928C3.82645 4.49146 5.61947 5.46546 7.54424 5.56854C7.35134 4.67783 7.61486 3.74445 8.2367 3.11831C9.20075 2.14736 10.717 2.19712 11.6232 3.22952C12.1592 3.11628 12.673 2.90553 13.1432 2.60694C12.9645 3.20058 12.5906 3.70484 12.091 4.02528C12.5654 3.96536 13.029 3.82926 13.4655 3.62156C13.1441 4.13751 12.7394 4.58693 12.2711 4.95002Z" />
        </symbol>
        <symbol id="instagram" viewBox="0 0 16 15">
            <path fill-rule="evenodd" clip-rule="evenodd" d="M8.13232 1.875C6.60457 1.875 6.41332 1.88138 5.81332 1.90875C5.21445 1.93613 4.80532 2.03137 4.44757 2.1705C4.07257 2.3115 3.73245 2.53275 3.4512 2.81925C3.16516 3.10018 2.94377 3.44006 2.80245 3.81525C2.66407 4.173 2.56845 4.5825 2.54107 5.18138C2.51407 5.781 2.50732 5.97188 2.50732 7.5C2.50732 9.02812 2.5137 9.219 2.54107 9.819C2.56845 10.4179 2.6637 10.827 2.80282 11.1847C2.94382 11.5597 3.16507 11.8999 3.45157 12.1811C3.73251 12.4672 4.07239 12.6885 4.44757 12.8299C4.80532 12.9686 5.21445 13.0639 5.81332 13.0912C6.41332 13.1186 6.60457 13.125 8.13232 13.125C9.66007 13.125 9.85132 13.1186 10.4513 13.0912C11.0502 13.0639 11.4593 12.9686 11.8171 12.8295C12.1921 12.6885 12.5322 12.4672 12.8134 12.1807C13.0995 11.8998 13.3209 11.5599 13.4622 11.1847C13.6009 10.827 13.6962 10.4179 13.7236 9.819C13.7509 9.219 13.7573 9.02775 13.7573 7.5C13.7573 5.97225 13.7509 5.781 13.7236 5.181C13.6962 4.58212 13.6009 4.173 13.4618 3.81525C13.3206 3.4399 13.0992 3.09987 12.8131 2.81887C12.5321 2.53283 12.1923 2.31145 11.8171 2.17013C11.4593 2.03175 11.0498 1.93613 10.4509 1.90875C9.85132 1.88175 9.66045 1.875 8.13232 1.875ZM8.13232 2.88863C9.6342 2.88863 9.81232 2.89425 10.4056 2.92125C10.9538 2.94638 11.2516 3.0375 11.4499 3.11512C11.7124 3.21675 11.8999 3.339 12.0968 3.5355C12.2937 3.73238 12.4156 3.91987 12.5172 4.18237C12.5944 4.38075 12.6859 4.6785 12.7111 5.22675C12.7381 5.82 12.7437 5.99813 12.7437 7.5C12.7437 9.00187 12.7381 9.18 12.7111 9.77325C12.6859 10.3215 12.5948 10.6193 12.5172 10.8176C12.4272 11.062 12.2835 11.283 12.0968 11.4645C11.9154 11.6512 11.6943 11.7949 11.4499 11.8849C11.2516 11.9621 10.9538 12.0536 10.4056 12.0787C9.81232 12.1058 9.63457 12.1114 8.13232 12.1114C6.63007 12.1114 6.45232 12.1058 5.85907 12.0787C5.31082 12.0536 5.01307 11.9625 4.8147 11.8849C4.57037 11.7949 4.34933 11.6512 4.16782 11.4645C3.98114 11.283 3.8375 11.0619 3.74745 10.8176C3.6702 10.6193 3.5787 10.3215 3.55357 9.77325C3.52657 9.18 3.52095 9.00187 3.52095 7.5C3.52095 5.99813 3.52657 5.82 3.55357 5.22675C3.5787 4.6785 3.66982 4.38075 3.74745 4.18237C3.84907 3.91987 3.97132 3.73238 4.16782 3.5355C4.3493 3.34877 4.57035 3.20512 4.8147 3.11512C5.01307 3.03787 5.31082 2.94638 5.85907 2.92125C6.45232 2.89425 6.63045 2.88863 8.13232 2.88863Z" />
            <path fill-rule="evenodd" clip-rule="evenodd" d="M8.13246 9.37686C7.88599 9.37686 7.64192 9.32832 7.41421 9.234C7.1865 9.13968 6.97959 9.00143 6.80531 8.82714C6.63103 8.65286 6.49278 8.44595 6.39845 8.21824C6.30413 7.99053 6.25559 7.74646 6.25559 7.49999C6.25559 7.25352 6.30413 7.00945 6.39845 6.78174C6.49278 6.55403 6.63103 6.34712 6.80531 6.17284C6.97959 5.99856 7.1865 5.86031 7.41421 5.76598C7.64192 5.67166 7.88599 5.62312 8.13246 5.62312C8.63024 5.62312 9.10763 5.82086 9.45961 6.17284C9.81159 6.52482 10.0093 7.00221 10.0093 7.49999C10.0093 7.99777 9.81159 8.47516 9.45961 8.82714C9.10763 9.17912 8.63024 9.37686 8.13246 9.37686ZM8.13246 4.60874C7.36565 4.60874 6.63025 4.91335 6.08804 5.45557C5.54582 5.99778 5.24121 6.73318 5.24121 7.49999C5.24121 8.2668 5.54582 9.0022 6.08804 9.54441C6.63025 10.0866 7.36565 10.3912 8.13246 10.3912C8.89927 10.3912 9.63467 10.0866 10.1769 9.54441C10.7191 9.0022 11.0237 8.2668 11.0237 7.49999C11.0237 6.73318 10.7191 5.99778 10.1769 5.45557C9.63467 4.91335 8.89927 4.60874 8.13246 4.60874ZM11.8648 4.55624C11.8648 4.7375 11.7928 4.91133 11.6647 5.0395C11.5365 5.16767 11.3627 5.23968 11.1814 5.23968C11.0001 5.23968 10.8263 5.16767 10.6981 5.0395C10.57 4.91133 10.498 4.7375 10.498 4.55624C10.498 4.37498 10.57 4.20115 10.6981 4.07298C10.8263 3.94481 11.0001 3.8728 11.1814 3.8728C11.3627 3.8728 11.5365 3.94481 11.6647 4.07298C11.7928 4.20115 11.8648 4.37498 11.8648 4.55624Z"  />
        </symbol>
        <symbol id="facebook" viewBox="0 0 16 15">
            <path d="M15.6323 7.5455C15.6323 3.378 12.2748 0 8.13232 0C3.98982 0 0.632324 3.378 0.632324 7.5455C0.632324 11.3125 3.37432 14.434 6.96032 15V9.727H5.05632V7.545H6.96032V5.883C6.96032 3.992 8.07982 2.947 9.79332 2.947C10.6133 2.947 11.4723 3.0945 11.4723 3.0945V4.9515H10.5258C9.59432 4.9515 9.30432 5.5335 9.30432 6.1305V7.5455H11.3843L11.0518 9.7265H9.30432V15C12.8903 14.434 15.6323 11.3125 15.6323 7.5455Z" />
        </symbol>
        <symbol id="btn-burger-open" viewBox="0 0 38 16">
            <path d="M0 2L38 2" stroke="white" stroke-width="3" />
            <path d="M0 14L38 14" stroke="white" stroke-width="3" />
        </symbol>
        <symbol id="btn-burger-close" viewBox="0 0 24 23">
            <path fill-rule="evenodd" clip-rule="evenodd" d="M2.06382 22.1275L23.1111 2.17731L21.0473 0L0 19.9502L2.06382 22.1275Z"/>
            <path fill-rule="evenodd" clip-rule="evenodd" d="M21.0475 22.1275L0.000209808 2.17731L2.06403 0L23.1113 19.9502L21.0475 22.1275Z"/>
        </symbol>
        <symbol id="arrow-text" viewBox="0 0 21 10">
            <path fill-rule="evenodd" clip-rule="evenodd" d="M12.3934 0.0523243L20.0503 4.61035L12.3934 9.16838V5.11035H0.14209V4.11035H12.3934V0.0523243Z"/>
        </symbol>
        <symbol id="shop-title" viewBox="0 0 1414 356">
            <path d="M39.072 128.094V50.838H93.24V48.174H39.072V45.51C39.072 19.758 51.948 7.548 70.596 7.548C95.016 7.548 106.338 25.308 119.88 49.284H122.544C117.216 38.184 106.782 16.428 106.782 0H104.118C104.118 6.438 103.674 9.76799 100.122 9.76799C95.016 9.76799 85.47 4.88399 70.596 4.88399C46.62 4.88399 24.642 18.87 23.532 48.174H5.55V50.838H23.532V128.094C23.532 144.522 23.532 156.51 0 156.51V159.174H62.604V156.51C39.072 156.51 39.072 144.522 39.072 128.094Z" fill="white"/>
            <path d="M126.077 99.234V128.094C126.077 144.522 126.077 156.51 102.545 156.51V159.174H165.149V156.51C141.617 156.51 141.617 144.522 141.617 128.094V80.364C141.617 68.376 156.269 48.174 176.471 48.174C201.113 48.174 207.995 62.16 223.091 89.022H225.755C218.207 72.594 235.301 47.286 265.715 47.286C288.359 47.286 299.015 63.936 299.459 88.8C273.929 88.8 198.227 93.462 198.227 131.868C198.227 151.848 218.207 162.726 241.073 162.726C283.697 162.726 296.573 124.542 299.459 116.106V159.174H338.531V156.51C314.999 156.51 314.999 144.522 314.999 128.094V91.02C314.999 54.39 288.137 44.622 264.161 44.622C241.961 44.622 221.537 61.494 221.315 79.698C215.987 67.932 209.993 52.392 209.993 39.738H207.329C207.329 46.176 206.885 49.506 203.333 49.506C198.227 49.506 193.121 44.622 177.581 44.622C160.709 44.622 148.055 55.722 141.617 67.488V44.622H138.953C138.953 68.154 126.077 68.154 102.545 68.154V70.818C126.077 70.818 126.077 82.806 126.077 99.234ZM214.877 131.868C214.877 105.45 254.393 91.464 299.459 91.464V99.234C299.459 118.77 282.587 159.396 243.959 159.396C228.641 159.396 214.877 148.296 214.877 131.868Z" fill="white"/>
            <path d="M505.433 128.094V99.234C505.433 82.806 505.433 70.818 481.901 70.818V68.154C505.433 68.154 518.309 68.154 518.309 44.622H520.973V128.094C520.973 144.522 520.973 156.51 544.505 156.51V159.174H481.901V156.51C505.433 156.51 505.433 144.522 505.433 128.094ZM351.809 179.154C351.809 194.916 371.567 207.126 406.865 207.126C435.503 207.126 468.581 194.916 468.581 171.384C468.581 126.984 366.239 182.04 366.239 144.078C366.239 137.862 370.901 133.2 375.563 129.204C384.665 135.642 395.987 139.416 408.419 139.416C437.501 139.416 461.921 118.104 461.921 92.13C461.921 85.914 460.589 80.142 458.147 74.592C466.139 72.15 474.131 70.818 481.901 70.818V68.154C473.465 68.154 465.251 69.708 456.815 72.15C448.379 55.944 429.509 44.622 408.419 44.622C379.337 44.622 355.139 65.934 355.139 92.13C355.139 105.894 362.021 118.326 372.677 126.984L352.475 144.078C352.475 156.066 360.911 160.284 372.677 161.616L351.809 179.154ZM365.573 179.154C365.573 172.05 371.567 166.5 376.451 161.838C405.977 163.17 451.931 149.184 451.931 175.602C451.931 193.584 430.619 204.462 406.865 204.462C385.997 204.462 365.573 197.136 365.573 179.154ZM371.789 92.13C371.789 63.936 386.441 47.286 408.419 47.286C426.401 47.286 439.277 58.164 443.717 77.256C420.851 87.468 398.651 104.784 379.337 121.434C374.453 113.886 371.789 104.118 371.789 92.13ZM381.335 124.098C399.761 107.226 421.739 90.132 444.161 79.92C444.827 83.694 445.271 87.69 445.271 92.13C445.271 119.88 430.619 136.752 408.419 136.752C397.097 136.752 387.551 132.312 381.335 124.098ZM498.329 25.086C498.329 31.524 503.435 36.63 509.873 36.63C516.089 36.63 521.195 31.524 521.195 25.086C521.195 18.87 516.089 13.764 509.873 13.764C503.435 13.764 498.329 18.87 498.329 25.086Z" fill="white"/>
            <path d="M581.35 59.274V128.094C581.35 144.522 581.35 156.51 557.818 156.51V159.174H620.422V156.51C596.89 156.51 596.89 144.522 596.89 128.094V4.66199H594.226C594.226 28.194 581.35 28.194 557.818 28.194V30.858C581.35 30.858 581.35 42.846 581.35 59.274Z" fill="white"/>
            <path d="M752.023 124.32L749.803 122.766C740.923 142.08 724.939 158.508 699.631 158.508C690.085 158.508 680.983 155.844 672.991 150.96L740.923 78.144C737.593 66.6 722.497 44.622 693.859 44.622C661.225 44.622 631.477 71.04 631.477 103.674C631.477 136.308 661.225 162.726 693.859 162.726C722.053 162.726 742.699 146.742 752.023 124.32ZM648.127 102.12C648.127 69.486 664.333 47.73 690.307 47.73C709.399 47.73 722.719 59.496 722.719 79.698C722.719 97.236 688.087 130.314 670.771 149.628C657.229 140.082 648.127 123.654 648.127 102.12Z" fill="white"/>
            <path d="M401.886 316.658L399.666 315.104C390.786 334.418 374.802 350.846 349.494 350.846C321.966 350.846 297.99 329.312 297.99 294.458C297.99 261.824 316.194 239.624 343.722 239.624C368.142 239.624 379.464 257.384 393.006 281.36H395.67C390.342 270.26 379.908 248.504 379.908 232.076H377.244C377.244 238.514 376.8 241.844 373.248 241.844C368.142 241.844 358.596 236.96 343.722 236.96C311.088 236.96 281.34 263.378 281.34 296.012C281.34 328.646 311.088 355.064 343.722 355.064C371.916 355.064 392.562 339.08 401.886 316.658Z" fill="white"/>
            <path d="M478.786 355.064C511.198 355.064 541.168 328.646 541.168 296.012C541.168 263.378 511.198 236.96 478.786 236.96C446.152 236.96 416.404 263.378 416.404 296.012C416.404 328.646 446.152 355.064 478.786 355.064ZM433.054 296.012C433.054 260.936 451.258 239.624 478.786 239.624C506.314 239.624 524.518 260.936 524.518 296.012C524.518 330.866 506.314 352.4 478.786 352.4C451.258 352.4 433.054 330.866 433.054 296.012Z" fill="white"/>
            <path d="M575.703 268.04V320.432C575.703 336.86 575.703 348.848 552.171 348.848V351.512H614.775V348.848C591.243 348.848 591.243 336.86 591.243 320.432V213.428H588.579C588.579 236.96 575.703 236.96 552.171 236.96V239.624C575.703 239.624 575.703 251.612 575.703 268.04ZM628.095 351.512H690.699V348.848C667.167 348.848 667.167 336.86 667.167 320.432V197H664.503C664.503 220.532 651.627 220.532 628.095 220.532V223.196C651.627 223.196 651.627 235.184 651.627 251.612V320.432C651.627 336.86 651.627 348.848 628.095 348.848V351.512Z" fill="white"/>
            <path d="M822.255 316.658L820.035 315.104C811.155 334.418 795.171 350.846 769.863 350.846C760.317 350.846 751.215 348.182 743.223 343.298L811.155 270.482C807.825 258.938 792.729 236.96 764.091 236.96C731.457 236.96 701.709 263.378 701.709 296.012C701.709 328.646 731.457 355.064 764.091 355.064C792.285 355.064 812.931 339.08 822.255 316.658ZM718.359 294.458C718.359 261.824 734.565 240.068 760.539 240.068C779.631 240.068 792.951 251.834 792.951 272.036C792.951 289.574 758.319 322.652 741.003 341.966C727.461 332.42 718.359 315.992 718.359 294.458Z" fill="white"/>
            <path d="M957.319 316.658L955.099 315.104C946.219 334.418 930.235 350.846 904.927 350.846C877.399 350.846 853.423 329.312 853.423 294.458C853.423 261.824 871.627 239.624 899.155 239.624C923.575 239.624 934.897 257.384 948.439 281.36H951.103C945.775 270.26 935.341 248.504 935.341 232.076C935.341 207.434 951.103 199.442 970.639 199.442C977.965 199.442 1001.5 202.55 1001.5 220.976C1001.5 228.08 996.835 240.512 965.089 240.512V243.176C988.621 243.176 988.621 255.164 988.621 271.592V302.45C988.621 339.08 1014.15 351.512 1033.91 351.512V348.848C1018.37 348.848 1004.16 337.748 1004.16 310.886V243.176H1035.24V240.512H1004.16V220.976C1004.16 200.996 980.851 197 970.639 197C949.549 197 932.233 206.546 932.677 232.076C932.899 238.514 932.233 241.844 928.681 241.844C923.575 241.844 914.029 236.96 899.155 236.96C866.521 236.96 836.773 263.378 836.773 296.012C836.773 328.646 866.521 355.064 899.155 355.064C927.349 355.064 947.995 339.08 957.319 316.658Z" fill="white"/>
            <path d="M1070 320.432V291.572C1070 275.144 1070 263.156 1046.47 263.156V260.492C1070 260.492 1082.88 260.492 1082.88 236.96H1085.54V320.432C1085.54 336.86 1085.54 348.848 1109.07 348.848V351.512H1046.47V348.848C1070 348.848 1070 336.86 1070 320.432ZM1062.9 217.424C1062.9 223.862 1068 228.968 1074.44 228.968C1080.66 228.968 1085.76 223.862 1085.76 217.424C1085.76 211.208 1080.66 206.102 1074.44 206.102C1068 206.102 1062.9 211.208 1062.9 217.424Z" fill="white"/>
            <path d="M1182.51 355.064C1214.92 355.064 1244.89 328.646 1244.89 296.012C1244.89 263.378 1214.92 236.96 1182.51 236.96C1149.88 236.96 1120.13 263.378 1120.13 296.012C1120.13 328.646 1149.88 355.064 1182.51 355.064ZM1136.78 296.012C1136.78 260.936 1154.98 239.624 1182.51 239.624C1210.04 239.624 1228.24 260.936 1228.24 296.012C1228.24 330.866 1210.04 352.4 1182.51 352.4C1154.98 352.4 1136.78 330.866 1136.78 296.012Z" fill="white"/>
            <path d="M1279.43 291.572V320.432C1279.43 336.86 1279.43 348.848 1255.89 348.848V351.512H1318.5V348.848C1294.97 348.848 1294.97 336.86 1294.97 320.432V272.702C1294.97 260.714 1309.84 240.512 1335.37 240.512C1357.57 240.512 1374.89 253.61 1374.89 277.586V320.432C1374.89 336.86 1374.89 348.848 1351.35 348.848V351.512H1413.96V348.848C1390.43 348.848 1390.43 336.86 1390.43 320.432V282.248C1390.43 254.054 1369.56 236.96 1340.03 236.96C1316.94 236.96 1302.07 248.282 1294.97 260.27V236.96H1292.3C1292.3 260.492 1279.43 260.492 1255.89 260.492V263.156C1279.43 263.156 1279.43 275.144 1279.43 291.572Z" fill="white"/>
        </symbol>
    </defs>
</svg>