<svg width="43" height="35" viewBox="0 0 43 35" fill="none" xmlns="http://www.w3.org/2000/svg">
    <path d="M21.6333 0L18.5745 4.80907H21.0312L21.0312 9.06594C12.3865 9.29431 4.46414 14.4206 0.730478 22.262C0.492286 22.7631 0.704744 23.3614 1.20506 23.599C1.70538 23.8372 2.30356 23.6247 2.54172 23.1249C2.56476 23.0761 2.59049 23.0279 2.61413 22.9794L18.9491 29.3239C18.9147 29.4008 18.8908 29.4822 18.8908 29.5672V34.3981C18.8908 34.6543 19.0532 34.8829 19.2953 34.9667C19.5377 35.0509 19.8067 34.9718 19.9653 34.7701L21.6581 32.6197L23.2955 34.763C23.452 34.9686 23.7222 35.0506 23.9664 34.968C24.2108 34.8851 24.3751 34.6561 24.3751 34.3979V29.5029C24.3751 29.4382 24.3623 29.3751 24.3422 29.314L40.6519 22.9789C40.6755 23.0277 40.7013 23.0756 40.7243 23.1243C40.9625 23.6241 41.561 23.8367 42.061 23.5984C42.4222 23.4269 42.6328 23.0672 42.6328 22.6922C42.6328 22.5476 42.6014 22.401 42.5356 22.2615C38.8021 14.4203 30.8795 9.29371 22.234 9.06539L22.234 4.80852H24.6907L21.6333 0ZM23.1723 29.683V32.619L22.1441 31.2731C22.0313 31.125 21.8563 31.0379 21.6701 31.0364C21.4843 31.0352 21.3081 31.1202 21.1932 31.2659L20.095 32.6609V29.7488L21.6638 27.3739L23.1723 29.683ZM40.2863 22.2605L23.9154 28.6193L22.2354 26.0492V11.0725C29.7884 11.291 36.7289 15.6039 40.2863 22.2605ZM21.032 26.1459L19.3886 28.634L2.98163 22.2605C6.53865 15.6036 13.4786 11.2902 21.0318 11.0718L21.032 26.1459Z" fill="white" />
</svg>