<svg xmlns="http://www.w3.org/2000/svg" xmlns:xlink="http://www.w3.org/1999/xlink" aria-hidden="true" style="position: absolute; width: 0; height: 0; overflow: hidden;" version="1.1">
    <defs>
        <symbol id="title-sprite" viewBox="0 0 218 32">
            <path d="M7.514 6.992c-3.859 0-6.66 1.639-6.66 4.508 0 7.002 15.403 5.26 15.403 10.212 0 1.674-2.698 3.040-5.567 3.040-4.884 0-8.197-3.21-10.28-6.899h-0.41c0.82 1.708 2.425 5.055 2.425 7.582h0.41c0-0.99 0.068-1.503 0.615-1.503 0.786 0 3.689 1.23 6.762 1.23 4.235 0 7.343-1.571 7.343-4.201 0-7.036-15.267-5.157-15.267-10.212 0-1.981 1.947-3.347 5.226-3.347 4.44 0 7.309 2.835 9.392 6.523h0.41c-0.82-1.708-2.425-5.055-2.425-7.582h-0.41c0 0.99-0.068 1.503-0.615 1.503-0.786 0-3.654-0.854-6.353-0.854z"/>
            <path d="M29.217 25.162c4.986 0 9.597-4.064 9.597-9.085s-4.611-9.085-9.597-9.085c-5.021 0-9.597 4.064-9.597 9.085s4.577 9.085 9.597 9.085zM22.181 16.077c0-5.396 2.801-8.675 7.036-8.675s7.036 3.279 7.036 8.675c0 5.362-2.801 8.675-7.036 8.675s-7.036-3.313-7.036-8.675z"/>
            <path d="M44.127 15.394v4.44c0 2.527 0 4.372-3.62 4.372v0.41h9.631v-0.41c-3.62 0-3.62-1.844-3.62-4.372v-7.343c0-1.844 2.288-4.952 6.216-4.952 3.415 0 6.079 2.015 6.079 5.704v8.129c0 8.197 6.899 10.622 14.584 10.622 4.406 0 10.554-1.878 10.554-5.499 0-6.831-15.745 1.639-15.745-4.201 0-0.922 0.649-1.708 1.332-2.357 1.434 1.025 3.21 1.639 5.157 1.639 4.474 0 8.231-3.279 8.231-7.275 0-1.913-0.854-3.689-2.254-4.986 0.99-0.854 2.083-0.82 3.45-0.273l-0.683-1.947c-1.298 0-2.288 0.956-3.074 1.947-1.503-1.264-3.484-2.049-5.67-2.049-4.474 0-8.197 3.279-8.197 7.309 0 2.117 1.059 4.030 2.698 5.362l-3.108 2.63c0 6.318 15.301-1.127 15.301 4.85 0 2.766-3.586 4.44-7.992 4.44-7.548 0-12.193-2.835-12.193-10.212v-7.411c0-4.338-3.21-6.967-7.753-6.967-3.552 0-5.84 1.742-6.933 3.586v-3.586h-0.41c0 3.62-1.981 3.62-5.601 3.62v0.41c3.62 0 3.62 1.844 3.62 4.372zM69.060 14.301c0-4.338 2.254-6.899 5.635-6.899 3.415 0 5.67 2.562 5.67 6.899 0 4.269-2.254 6.865-5.67 6.865-3.381 0-5.635-2.596-5.635-6.865z"/>
            <path d="M93.165 6.992c-3.859 0-6.66 1.639-6.66 4.508 0 7.002 15.403 5.26 15.403 10.212 0 1.674-2.698 3.040-5.567 3.040-4.884 0-8.197-3.21-10.28-6.899h-0.41c0.82 1.708 2.425 5.055 2.425 7.582h0.41c0-0.99 0.068-1.503 0.615-1.503 0.786 0 3.689 1.23 6.762 1.23 4.235 0 7.343-1.571 7.343-4.201 0-7.036-15.267-5.157-15.267-10.212 0-1.981 1.947-3.347 5.226-3.347 4.44 0 7.309 2.835 9.392 6.523h0.41c-0.82-1.708-2.425-5.055-2.425-7.582h-0.41c0 0.99-0.068 1.503-0.615 1.503-0.786 0-3.654-0.854-6.353-0.854z"/>
            <path d="M114.868 25.162c4.986 0 9.597-4.064 9.597-9.085s-4.611-9.085-9.597-9.085c-5.021 0-9.597 4.064-9.597 9.085s4.577 9.085 9.597 9.085zM107.833 16.077c0-5.396 2.801-8.675 7.036-8.675s7.036 3.279 7.036 8.675c0 5.362-2.801 8.675-7.036 8.675s-7.036-3.313-7.036-8.675z"/>
            <path d="M132.17 19.834v-11.886h8.334v-0.41h-8.334v-0.41c0-3.962 1.981-5.84 4.85-5.84 3.757 0 5.499 2.732 7.582 6.421h0.41c-0.82-1.708-2.425-5.055-2.425-7.582h-0.41c0 0.99-0.068 1.503-0.615 1.503-0.786 0-2.254-0.751-4.542-0.751-3.689 0-7.070 2.152-7.241 6.66h-2.766v0.41h2.766v11.886c0 2.527 0 4.372-3.62 4.372v0.41h9.631v-0.41c-3.62 0-3.62-1.844-3.62-4.372z"/>
            <path d="M161.172 19.253l-0.342-0.239c-1.366 2.971-3.825 5.499-7.719 5.499-4.235 0-7.924-3.313-7.924-8.675 0-5.021 2.801-8.436 7.036-8.436 3.757 0 5.499 2.732 7.582 6.421h0.411c-0.82-1.708-2.426-5.055-2.426-7.582h-0.409c0 0.99-0.068 1.503-0.615 1.503-0.785 0-2.254-0.751-4.542-0.751-5.021 0-9.597 4.064-9.597 9.085s4.577 9.085 9.597 9.085c4.337 0 7.514-2.459 8.948-5.909z"/>
            <path d="M166.334 9.246v10.588c0 2.527 0 4.372-3.62 4.372v0.41h9.631v-0.41c-3.62 0-3.62-1.844-3.62-4.372v-18.989h-0.409c0 3.62-1.982 3.62-5.602 3.62v0.41c3.62 0 3.62 1.844 3.62 4.372z"/>
            <path d="M189.62 13.789c-3.928 0-15.574 0.717-15.574 6.626 0 3.074 3.074 4.747 6.591 4.747 6.558 0 8.538-5.874 8.983-7.172v6.626h6.011v-0.41c-3.62 0-3.62-1.844-3.62-4.372v-5.704c0-5.635-4.132-7.138-7.822-7.138-1.638 0-4.065 0.751-4.849 0.751-0.546 0-0.615-0.512-0.615-1.503h-0.409c0 2.527-1.606 5.874-2.425 7.582h0.409c2.323-4.133 4.611-6.421 8.129-6.421 3.483 0 5.123 2.562 5.191 6.387zM176.608 20.414c0-4.064 6.078-6.216 13.012-6.216v1.195c0 3.006-2.595 9.256-8.538 9.256-2.357 0-4.474-1.708-4.474-4.235z"/>
            <path d="M198.1 29.465l-1.195 1.981c5.088 0 8.128-4.85 10.382-9.187l5.192-9.939c1.162-2.22 2.254-4.372 5.874-4.372v-0.41h-7.752v0.41c3.62 0 2.528 2.152 1.366 4.372l-5.226 10.007-5.191-10.007c-1.298-2.493-2.22-4.372 1.4-4.372v-0.41h-9.7v0.41c3.62 0 4.543 1.878 5.84 4.372l6.388 12.193c-1.811 2.835-4.065 4.952-7.377 4.952z"/>
        </symbol>
        <symbol id="patreon" viewBox="0 0 15 15">
            <path d="M9.24086 10.5035C11.7311 10.5035 13.7498 8.48474 13.7498 5.99453C13.7498 3.50431 11.7311 1.4856 9.24086 1.4856C6.75065 1.4856 4.73193 3.50431 4.73193 5.99453C4.73193 8.48474 6.75065 10.5035 9.24086 10.5035Z"/>
            <path d="M3.45389 1.4856H1.25V13.5144H3.45389V1.4856Z"/>
        </symbol>
        <symbol id="twitter" viewBox="0 0 15 15">
            <path d="M12.2711 4.95002C12.2782 5.06022 12.2782 5.17041 12.2782 5.28163C12.2782 8.67031 9.87046 12.5785 5.4678 12.5785V12.5765C4.16724 12.5785 2.89369 12.1794 1.79883 11.4268C1.98794 11.4511 2.178 11.4633 2.36853 11.4638C3.44633 11.4648 4.49332 11.0774 5.34125 10.3639C4.31701 10.3431 3.41884 9.62755 3.10508 8.58297C3.46387 8.65711 3.83356 8.64187 4.18572 8.53879C3.06906 8.29706 2.26568 7.24588 2.26568 6.02507C2.26568 6.0139 2.26568 6.00324 2.26568 5.99257C2.59841 6.19113 2.97095 6.30133 3.35201 6.31352C2.30028 5.56042 1.97609 4.06133 2.61121 2.88928C3.82645 4.49146 5.61947 5.46546 7.54424 5.56854C7.35134 4.67783 7.61486 3.74445 8.2367 3.11831C9.20075 2.14736 10.717 2.19712 11.6232 3.22952C12.1592 3.11628 12.673 2.90553 13.1432 2.60694C12.9645 3.20058 12.5906 3.70484 12.091 4.02528C12.5654 3.96536 13.029 3.82926 13.4655 3.62156C13.1441 4.13751 12.7394 4.58693 12.2711 4.95002Z" />
        </symbol>
        <symbol id="instagram" viewBox="0 0 16 15">
            <path fill-rule="evenodd" clip-rule="evenodd" d="M8.13232 1.875C6.60457 1.875 6.41332 1.88138 5.81332 1.90875C5.21445 1.93613 4.80532 2.03137 4.44757 2.1705C4.07257 2.3115 3.73245 2.53275 3.4512 2.81925C3.16516 3.10018 2.94377 3.44006 2.80245 3.81525C2.66407 4.173 2.56845 4.5825 2.54107 5.18138C2.51407 5.781 2.50732 5.97188 2.50732 7.5C2.50732 9.02812 2.5137 9.219 2.54107 9.819C2.56845 10.4179 2.6637 10.827 2.80282 11.1847C2.94382 11.5597 3.16507 11.8999 3.45157 12.1811C3.73251 12.4672 4.07239 12.6885 4.44757 12.8299C4.80532 12.9686 5.21445 13.0639 5.81332 13.0912C6.41332 13.1186 6.60457 13.125 8.13232 13.125C9.66007 13.125 9.85132 13.1186 10.4513 13.0912C11.0502 13.0639 11.4593 12.9686 11.8171 12.8295C12.1921 12.6885 12.5322 12.4672 12.8134 12.1807C13.0995 11.8998 13.3209 11.5599 13.4622 11.1847C13.6009 10.827 13.6962 10.4179 13.7236 9.819C13.7509 9.219 13.7573 9.02775 13.7573 7.5C13.7573 5.97225 13.7509 5.781 13.7236 5.181C13.6962 4.58212 13.6009 4.173 13.4618 3.81525C13.3206 3.4399 13.0992 3.09987 12.8131 2.81887C12.5321 2.53283 12.1923 2.31145 11.8171 2.17013C11.4593 2.03175 11.0498 1.93613 10.4509 1.90875C9.85132 1.88175 9.66045 1.875 8.13232 1.875ZM8.13232 2.88863C9.6342 2.88863 9.81232 2.89425 10.4056 2.92125C10.9538 2.94638 11.2516 3.0375 11.4499 3.11512C11.7124 3.21675 11.8999 3.339 12.0968 3.5355C12.2937 3.73238 12.4156 3.91987 12.5172 4.18237C12.5944 4.38075 12.6859 4.6785 12.7111 5.22675C12.7381 5.82 12.7437 5.99813 12.7437 7.5C12.7437 9.00187 12.7381 9.18 12.7111 9.77325C12.6859 10.3215 12.5948 10.6193 12.5172 10.8176C12.4272 11.062 12.2835 11.283 12.0968 11.4645C11.9154 11.6512 11.6943 11.7949 11.4499 11.8849C11.2516 11.9621 10.9538 12.0536 10.4056 12.0787C9.81232 12.1058 9.63457 12.1114 8.13232 12.1114C6.63007 12.1114 6.45232 12.1058 5.85907 12.0787C5.31082 12.0536 5.01307 11.9625 4.8147 11.8849C4.57037 11.7949 4.34933 11.6512 4.16782 11.4645C3.98114 11.283 3.8375 11.0619 3.74745 10.8176C3.6702 10.6193 3.5787 10.3215 3.55357 9.77325C3.52657 9.18 3.52095 9.00187 3.52095 7.5C3.52095 5.99813 3.52657 5.82 3.55357 5.22675C3.5787 4.6785 3.66982 4.38075 3.74745 4.18237C3.84907 3.91987 3.97132 3.73238 4.16782 3.5355C4.3493 3.34877 4.57035 3.20512 4.8147 3.11512C5.01307 3.03787 5.31082 2.94638 5.85907 2.92125C6.45232 2.89425 6.63045 2.88863 8.13232 2.88863Z" />
            <path fill-rule="evenodd" clip-rule="evenodd" d="M8.13246 9.37686C7.88599 9.37686 7.64192 9.32832 7.41421 9.234C7.1865 9.13968 6.97959 9.00143 6.80531 8.82714C6.63103 8.65286 6.49278 8.44595 6.39845 8.21824C6.30413 7.99053 6.25559 7.74646 6.25559 7.49999C6.25559 7.25352 6.30413 7.00945 6.39845 6.78174C6.49278 6.55403 6.63103 6.34712 6.80531 6.17284C6.97959 5.99856 7.1865 5.86031 7.41421 5.76598C7.64192 5.67166 7.88599 5.62312 8.13246 5.62312C8.63024 5.62312 9.10763 5.82086 9.45961 6.17284C9.81159 6.52482 10.0093 7.00221 10.0093 7.49999C10.0093 7.99777 9.81159 8.47516 9.45961 8.82714C9.10763 9.17912 8.63024 9.37686 8.13246 9.37686ZM8.13246 4.60874C7.36565 4.60874 6.63025 4.91335 6.08804 5.45557C5.54582 5.99778 5.24121 6.73318 5.24121 7.49999C5.24121 8.2668 5.54582 9.0022 6.08804 9.54441C6.63025 10.0866 7.36565 10.3912 8.13246 10.3912C8.89927 10.3912 9.63467 10.0866 10.1769 9.54441C10.7191 9.0022 11.0237 8.2668 11.0237 7.49999C11.0237 6.73318 10.7191 5.99778 10.1769 5.45557C9.63467 4.91335 8.89927 4.60874 8.13246 4.60874ZM11.8648 4.55624C11.8648 4.7375 11.7928 4.91133 11.6647 5.0395C11.5365 5.16767 11.3627 5.23968 11.1814 5.23968C11.0001 5.23968 10.8263 5.16767 10.6981 5.0395C10.57 4.91133 10.498 4.7375 10.498 4.55624C10.498 4.37498 10.57 4.20115 10.6981 4.07298C10.8263 3.94481 11.0001 3.8728 11.1814 3.8728C11.3627 3.8728 11.5365 3.94481 11.6647 4.07298C11.7928 4.20115 11.8648 4.37498 11.8648 4.55624Z"  />
        </symbol>
        <symbol id="facebook" viewBox="0 0 16 15">
            <path d="M15.6323 7.5455C15.6323 3.378 12.2748 0 8.13232 0C3.98982 0 0.632324 3.378 0.632324 7.5455C0.632324 11.3125 3.37432 14.434 6.96032 15V9.727H5.05632V7.545H6.96032V5.883C6.96032 3.992 8.07982 2.947 9.79332 2.947C10.6133 2.947 11.4723 3.0945 11.4723 3.0945V4.9515H10.5258C9.59432 4.9515 9.30432 5.5335 9.30432 6.1305V7.5455H11.3843L11.0518 9.7265H9.30432V15C12.8903 14.434 15.6323 11.3125 15.6323 7.5455Z" />
        </symbol>
        <symbol id="btn-burger-open" viewBox="0 0 38 16">
            <path d="M0 2L38 2" stroke="white" stroke-width="3" />
            <path d="M0 14L38 14" stroke="white" stroke-width="3" />
        </symbol>
        <symbol id="btn-burger-close" viewBox="0 0 24 23">
            <path fill-rule="evenodd" clip-rule="evenodd" d="M2.06382 22.1275L23.1111 2.17731L21.0473 0L0 19.9502L2.06382 22.1275Z"/>
            <path fill-rule="evenodd" clip-rule="evenodd" d="M21.0475 22.1275L0.000209808 2.17731L2.06403 0L23.1113 19.9502L21.0475 22.1275Z"/>
        </symbol>
        <symbol id="arrow-text" viewBox="0 0 21 10">
            <path fill-rule="evenodd" clip-rule="evenodd" d="M12.3934 0.0523243L20.0503 4.61035L12.3934 9.16838V5.11035H0.14209V4.11035H12.3934V0.0523243Z"/>
        </symbol>
    </defs>
</svg>